<svg width="118" height="80" viewBox="0 0 118 80" fill="none" xmlns="http://www.w3.org/2000/svg">
<path d="M27.4804 79.68C22.6804 79.68 18.1604 78.32 13.9204 75.6C9.76035 72.88 6.40035 68.6 3.84035 62.76C1.28035 56.92 0.000351772 49.32 0.000351772 39.96C0.000351772 30.52 1.28035 22.88 3.84035 17.04C6.40035 11.12 9.76035 6.8 13.9204 4.08C18.1604 1.36 22.6804 -9.53674e-07 27.4804 -9.53674e-07C32.2804 -9.53674e-07 36.7604 1.36 40.9204 4.08C45.1604 6.8 48.5604 11.12 51.1204 17.04C53.7604 22.88 55.0804 30.52 55.0804 39.96C55.0804 49.32 53.7604 56.92 51.1204 62.76C48.5604 68.6 45.1604 72.88 40.9204 75.6C36.7604 78.32 32.2804 79.68 27.4804 79.68ZM27.4804 77.28C29.4804 77.28 31.1604 76.76 32.5204 75.72C33.9604 74.68 35.1204 72.8 36.0004 70.08C36.8804 67.36 37.5204 63.6 37.9204 58.8C38.3204 53.92 38.5204 47.64 38.5204 39.96C38.5204 32.28 38.3204 26 37.9204 21.12C37.5204 16.16 36.8804 12.32 36.0004 9.6C35.1204 6.88 33.9604 5 32.5204 3.96C31.1604 2.92 29.4804 2.4 27.4804 2.4C25.4804 2.4 23.7604 2.92 22.3204 3.96C20.9604 5 19.8404 6.88 18.9604 9.6C18.0804 12.24 17.4404 16.04 17.0404 21C16.6404 25.88 16.4404 32.2 16.4404 39.96C16.4404 47.64 16.6404 53.92 17.0404 58.8C17.4404 63.68 18.0804 67.48 18.9604 70.2C19.8404 72.84 20.9604 74.68 22.3204 75.72C23.7604 76.76 25.4804 77.28 27.4804 77.28ZM88.0747 79.68C82.7147 79.68 78.3147 79.08 74.8747 77.88C71.5147 76.68 68.1947 75.28 64.9147 73.68L66.2347 58.08H67.4347L72.7147 67.8C76.2347 74.12 81.1147 77.28 87.3547 77.28C91.0347 77.28 93.9947 75.76 96.2347 72.72C98.5547 69.6 99.7147 64.4 99.7147 57.12C99.7147 50.8 98.7547 46.28 96.8347 43.56C94.9147 40.76 91.6347 39.36 86.9947 39.36H79.7947V36.96H86.1547C90.3947 36.96 93.4347 35.68 95.2747 33.12C97.1947 30.56 98.1547 26.12 98.1547 19.8C98.1547 13.64 97.2347 9.28 95.3947 6.72C93.5547 4.08 91.1147 2.76 88.0747 2.76C85.0347 2.76 82.4747 3.64 80.3947 5.4C78.3947 7.16 76.7547 9.24 75.4747 11.64L70.0747 21.72L68.8747 21.6L70.0747 3.96C72.6347 2.84 75.4747 1.92 78.5947 1.2C81.7947 0.399999 85.3547 -9.53674e-07 89.2747 -9.53674e-07C97.6747 -9.53674e-07 104.035 1.84 108.355 5.52C112.755 9.12 114.955 13.64 114.955 19.08C114.955 23 113.275 26.76 109.915 30.36C106.555 33.88 101.275 36.32 94.0747 37.68C102.235 38.4 108.155 40.6 111.835 44.28C115.515 47.96 117.355 52.4 117.355 57.6C117.355 61.76 116.155 65.52 113.755 68.88C111.435 72.24 108.075 74.88 103.675 76.8C99.3547 78.72 94.1547 79.68 88.0747 79.68Z" fill="white"/>
</svg>
