<svg width="119" height="80" viewBox="0 0 119 80" fill="none" xmlns="http://www.w3.org/2000/svg">
<path d="M27.4804 79.68C22.6804 79.68 18.1604 78.32 13.9204 75.6C9.76035 72.88 6.40035 68.6 3.84035 62.76C1.28035 56.92 0.000351772 49.32 0.000351772 39.96C0.000351772 30.52 1.28035 22.88 3.84035 17.04C6.40035 11.12 9.76035 6.8 13.9204 4.08C18.1604 1.36 22.6804 -9.53674e-07 27.4804 -9.53674e-07C32.2804 -9.53674e-07 36.7604 1.36 40.9204 4.08C45.1604 6.8 48.5604 11.12 51.1204 17.04C53.7604 22.88 55.0804 30.52 55.0804 39.96C55.0804 49.32 53.7604 56.92 51.1204 62.76C48.5604 68.6 45.1604 72.88 40.9204 75.6C36.7604 78.32 32.2804 79.68 27.4804 79.68ZM27.4804 77.28C29.4804 77.28 31.1604 76.76 32.5204 75.72C33.9604 74.68 35.1204 72.8 36.0004 70.08C36.8804 67.36 37.5204 63.6 37.9204 58.8C38.3204 53.92 38.5204 47.64 38.5204 39.96C38.5204 32.28 38.3204 26 37.9204 21.12C37.5204 16.16 36.8804 12.32 36.0004 9.6C35.1204 6.88 33.9604 5 32.5204 3.96C31.1604 2.92 29.4804 2.4 27.4804 2.4C25.4804 2.4 23.7604 2.92 22.3204 3.96C20.9604 5 19.8404 6.88 18.9604 9.6C18.0804 12.24 17.4404 16.04 17.0404 21C16.6404 25.88 16.4404 32.2 16.4404 39.96C16.4404 47.64 16.6404 53.92 17.0404 58.8C17.4404 63.68 18.0804 67.48 18.9604 70.2C19.8404 72.84 20.9604 74.68 22.3204 75.72C23.7604 76.76 25.4804 77.28 27.4804 77.28ZM92.0347 77.88V58.44H60.4747V51.6L95.6347 0.840003H107.395V49.56H118.795V58.44H107.395V77.88H92.0347ZM65.7547 49.56H92.0347V11.76L65.7547 49.56Z" fill="white"/>
</svg>
