<svg width="72" height="56" viewBox="0 0 72 56" fill="none" xmlns="http://www.w3.org/2000/svg">
<path d="M0.340938 55.165V54.315L3.65594 53.295C5.80927 52.5584 6.88594 51.1134 6.88594 48.96V7.82004L0.000937518 8.75504V7.65004C3.34427 6.97004 6.54594 6.0067 9.60594 4.76003C12.7226 3.51337 15.6409 2.06837 18.3609 0.425035L19.4659 1.19003L19.1259 13.345V48.96C19.1259 51.17 20.2026 52.5867 22.3559 53.21L25.8409 54.315V55.165H0.340938ZM35.2427 15.555L35.8377 3.48504C37.5377 2.5217 39.6344 1.70004 42.1277 1.02004C44.6777 0.340036 47.5394 3.49283e-05 50.7127 3.49283e-05C55.2461 3.49283e-05 58.9011 0.651702 61.6777 1.95504C64.4544 3.2017 66.4944 4.93004 67.7977 7.14004C69.1011 9.35004 69.7527 11.8434 69.7527 14.62C69.7527 18.53 67.8544 22.355 64.0577 26.095C60.2611 29.7784 55.0761 33.8584 48.5027 38.335C47.2561 39.2417 45.7827 40.3467 44.0827 41.65C42.3827 42.9534 40.7961 44.2284 39.3227 45.475H71.1977V55.165H33.7977V48.025C35.8377 46.0417 37.8211 44.0867 39.7477 42.16C41.7311 40.1767 43.6011 38.3067 45.3577 36.55C49.4377 32.3567 52.4694 28.645 54.4527 25.415C56.4927 22.1284 57.5127 18.615 57.5127 14.875C57.5127 10.965 56.8044 7.82004 55.3877 5.44004C53.9711 3.00337 51.8461 1.78504 49.0127 1.78504C47.2561 1.78504 45.6127 2.23837 44.0827 3.14503C42.6094 3.99504 41.3061 5.49671 40.1727 7.65004L36.0927 15.555H35.2427Z" fill="#CDA274"/>
</svg>
