<svg width="72" height="57" viewBox="0 0 72 57" fill="none" xmlns="http://www.w3.org/2000/svg">
<path d="M0.340938 54.74V53.89L3.65594 52.87C5.80927 52.1333 6.88594 50.6883 6.88594 48.535V7.39499L0.000937518 8.32999V7.22499C3.34427 6.54499 6.54594 5.58165 9.60594 4.33499C12.7226 3.08832 15.6409 1.64332 18.3609 -1.43051e-05L19.4659 0.764986L19.1259 12.92V48.535C19.1259 50.745 20.2026 52.1617 22.3559 52.785L25.8409 53.89V54.74H0.340938ZM50.1177 56.015C46.8311 56.015 43.8844 55.7033 41.2777 55.08C38.7277 54.5133 36.4611 53.55 34.4777 52.19L35.0727 41.48H35.9227L39.8327 48.45C40.9661 50.49 42.3544 51.9917 43.9977 52.955C45.6411 53.8617 47.4544 54.315 49.4377 54.315C55.9544 54.315 59.2127 49.3567 59.2127 39.44C59.2127 34.9633 58.3344 31.5633 56.5777 29.24C54.8777 26.9167 52.3277 25.755 48.9277 25.755C47.3411 25.755 45.7544 25.9817 44.1677 26.435C42.6377 26.8317 41.2211 27.37 39.9177 28.05L38.3877 27.115L40.2577 0.84999H70.0077V10.54H41.9577L40.7677 25.245C42.0711 24.2817 43.8277 23.375 46.0377 22.525C48.2477 21.675 50.5711 21.25 53.0077 21.25C56.6911 21.25 59.9494 21.9017 62.7827 23.205C65.6727 24.5083 67.9111 26.435 69.4977 28.985C71.1411 31.4783 71.9627 34.5667 71.9627 38.25C71.9627 42.0467 70.9994 45.2767 69.0727 47.94C67.2027 50.6033 64.6244 52.615 61.3377 53.975C58.0511 55.335 54.3111 56.015 50.1177 56.015Z" fill="#CDA274"/>
</svg>
