<svg width="85" height="57" viewBox="0 0 85 57" fill="none" xmlns="http://www.w3.org/2000/svg">
<path d="M-0.000859302 43.35C-0.000859302 40.46 1.16081 37.91 3.48414 35.7C5.80747 33.49 8.66914 31.705 12.0691 30.345C4.87247 26.605 1.27414 21.505 1.27414 15.045C1.27414 11.9284 2.06747 9.26504 3.65414 7.05504C5.24081 4.78837 7.39414 3.06004 10.1141 1.87004C12.8908 0.623369 15.9791 3.49283e-05 19.3791 3.49283e-05C22.8358 3.49283e-05 25.7258 0.566703 28.0491 1.70004C30.3725 2.7767 32.1008 4.25004 33.2341 6.12004C34.4241 7.93337 35.0191 9.94504 35.0191 12.155C35.0191 13.855 34.5658 15.4984 33.6591 17.085C32.7525 18.6717 31.5341 20.1167 30.0041 21.42C28.5308 22.7234 26.9158 23.8 25.1591 24.65C29.4091 26.7467 32.5825 29.1267 34.6791 31.79C36.8325 34.3967 37.9091 37.5417 37.9091 41.225C37.9091 45.815 36.1525 49.4984 32.6391 52.275C29.1258 55.0517 24.4225 56.44 18.5291 56.44C12.5225 56.44 7.93247 55.2784 4.75914 52.955C1.58581 50.575 -0.000859302 47.3734 -0.000859302 43.35ZM11.2191 10.2C11.2191 11.9 11.5308 13.4867 12.1541 14.96C12.7775 16.3767 13.9675 17.8217 15.7241 19.295C17.5375 20.7117 20.1441 22.2417 23.5441 23.885C25.2441 21.9017 26.3208 20.0034 26.7741 18.19C27.2275 16.3767 27.4541 14.62 27.4541 12.92C27.4541 8.8967 26.6891 6.03504 25.1591 4.33503C23.6291 2.57837 21.6175 1.70004 19.1241 1.70004C16.9141 1.70004 15.0441 2.46504 13.5141 3.99503C11.9841 5.46837 11.2191 7.5367 11.2191 10.2ZM8.92414 42.5C8.92414 46.1267 9.83081 49.0734 11.6441 51.34C13.4575 53.6067 15.8941 54.74 18.9541 54.74C21.7875 54.74 23.9408 53.8334 25.4141 52.02C26.8875 50.15 27.6241 47.7417 27.6241 44.795C27.6241 42.9817 27.2275 41.3667 26.4341 39.95C25.6408 38.4767 24.2525 37.06 22.2691 35.7C20.3425 34.34 17.6508 32.895 14.1941 31.365C13.9108 31.2517 13.6275 31.11 13.3441 30.94C12.0975 32.13 11.1625 33.2634 10.5391 34.34C9.91581 35.36 9.49081 36.5217 9.26414 37.825C9.03747 39.0717 8.92414 40.63 8.92414 42.5ZM62.7252 56.44C59.4385 56.44 56.4918 56.1284 53.8852 55.505C51.3352 54.9384 49.0685 53.975 47.0852 52.615L47.6802 41.905H48.5302L52.4402 48.875C53.5735 50.915 54.9618 52.4167 56.6052 53.38C58.2485 54.2867 60.0618 54.74 62.0452 54.74C68.5618 54.74 71.8202 49.7817 71.8202 39.865C71.8202 35.3884 70.9418 31.9884 69.1852 29.665C67.4852 27.3417 64.9352 26.18 61.5352 26.18C59.9485 26.18 58.3618 26.4067 56.7752 26.86C55.2452 27.2567 53.8285 27.795 52.5252 28.475L50.9952 27.54L52.8652 1.27504H82.6152V10.965H54.5652L53.3752 25.67C54.6785 24.7067 56.4352 23.8 58.6452 22.95C60.8552 22.1 63.1785 21.675 65.6152 21.675C69.2985 21.675 72.5568 22.3267 75.3902 23.63C78.2802 24.9334 80.5185 26.86 82.1052 29.41C83.7485 31.9034 84.5702 34.9917 84.5702 38.675C84.5702 42.4717 83.6068 45.7017 81.6802 48.365C79.8102 51.0284 77.2318 53.04 73.9452 54.4C70.6585 55.76 66.9185 56.44 62.7252 56.44Z" fill="#CDA274"/>
</svg>
