<svg width="87" height="57" viewBox="0 0 87 57" fill="none" xmlns="http://www.w3.org/2000/svg">
<path d="M39.8652 22.78C39.8652 28.5034 38.5336 33.7167 35.8702 38.42C33.2069 43.0667 29.2969 46.9767 24.1402 50.15C19.0402 53.3234 12.7786 55.5617 5.35523 56.865L5.01523 55.335C10.0586 54.2584 14.1102 52.7 17.1702 50.66C20.2302 48.62 22.5252 46.0417 24.0552 42.925C25.6419 39.8084 26.6619 36.0684 27.1152 31.705C25.9252 32.4984 24.4519 33.15 22.6952 33.66C20.9386 34.1134 18.9552 34.34 16.7452 34.34C13.5719 34.34 10.7102 33.7167 8.16023 32.47C5.6669 31.1667 3.68357 29.2967 2.21023 26.86C0.736901 24.4234 0.00023449 21.4767 0.00023449 18.02C0.00023449 14.3367 0.906901 11.1634 2.72023 8.50004C4.53357 5.78004 6.91357 3.68337 9.86023 2.21004C12.8636 0.736702 16.1502 3.49283e-05 19.7202 3.49283e-05C26.1802 3.49283e-05 31.1386 2.04004 34.5952 6.12004C38.1086 10.1434 39.8652 15.6967 39.8652 22.78ZM11.9852 16.915C11.9852 22.0717 12.6936 25.8117 14.1102 28.135C15.5269 30.4017 17.8502 31.535 21.0802 31.535C23.4602 31.535 25.5286 31.025 27.2852 30.005C27.3986 28.7584 27.4836 27.5117 27.5402 26.265C27.5969 24.9617 27.6252 23.6017 27.6252 22.185C27.6252 16.9717 27.3702 12.8917 26.8602 9.94504C26.3502 6.9417 25.5286 4.8167 24.3952 3.57003C23.2619 2.32337 21.7319 1.70004 19.8052 1.70004C17.1986 1.70004 15.2436 2.89004 13.9402 5.27004C12.6369 7.65004 11.9852 11.5317 11.9852 16.915ZM65.0445 56.44C61.7578 56.44 58.8112 56.1284 56.2045 55.505C53.6545 54.9384 51.3878 53.975 49.4045 52.615L49.9995 41.905H50.8495L54.7595 48.875C55.8928 50.915 57.2812 52.4167 58.9245 53.38C60.5678 54.2867 62.3812 54.74 64.3645 54.74C70.8812 54.74 74.1395 49.7817 74.1395 39.865C74.1395 35.3884 73.2612 31.9884 71.5045 29.665C69.8045 27.3417 67.2545 26.18 63.8545 26.18C62.2678 26.18 60.6812 26.4067 59.0945 26.86C57.5645 27.2567 56.1478 27.795 54.8445 28.475L53.3145 27.54L55.1845 1.27504H84.9345V10.965H56.8845L55.6945 25.67C56.9978 24.7067 58.7545 23.8 60.9645 22.95C63.1745 22.1 65.4978 21.675 67.9345 21.675C71.6178 21.675 74.8762 22.3267 77.7095 23.63C80.5995 24.9334 82.8378 26.86 84.4245 29.41C86.0678 31.9034 86.8895 34.9917 86.8895 38.675C86.8895 42.4717 85.9262 45.7017 83.9995 48.365C82.1295 51.0284 79.5512 53.04 76.2645 54.4C72.9778 55.76 69.2378 56.44 65.0445 56.44Z" fill="#CDA274"/>
</svg>
